<?xml version="1.0" encoding="utf-8"?>
<!-- Zimmer Austria Logo — kompakte viewBox, extra Headroom, links/oben ausgerichtet -->
<svg version="1.1"
     xmlns="http://www.w3.org/2000/svg"
     viewBox="0 0 230 98"
     width="100%" height="100%"
     preserveAspectRatio="xMinYMin meet">
  <style>
    .st0{fill-rule:evenodd;clip-rule:evenodd;fill:#495C68;}
    .st1{fill-rule:evenodd;clip-rule:evenodd;fill:#5997BF;}
  </style>

  <!-- Originalpfade in neues Koordinatensystem verschoben.
       translate(-854, -508) gibt oben EXTRA LUFT (~8–10 Einheiten). -->
  <g transform="translate(-850,-490)">
    <path class="st0" d="M1006.71,546.08c-0.01-0.2-0.31-0.17-0.31-0.17h-4.58c-2.05,0-3.04,1.24-3.35,3.27l-0.48,2.59l8.54-5.46
      C1006.53,546.31,1006.71,546.21,1006.71,546.08z M1011.3,550.5c1.17-0.71,2.21-2.02,2.48-3.52c0.17-1,0.48-2.76,0.69-3.89
      c0.43-2.31-1.27-3.87-3.11-3.87h-14.45c-3.1,0-4.49,2.71-4.68,3.86l-3.3,18.04c-0.56,3.02,1.06,4.37,3.14,4.37h14.5
      c2.33,0,4.12-1.89,4.52-4.01l0.55-2.98h-12.46c-0.54,0,1.21-0.94,1.49-1.15L1011.3,550.5z"/>
    <path class="st0" d="M935.27,541.61c0.29-1.33,1.47-2.39,2.92-2.38h6.56c1.55,0,2.21,1.33,2.02,2.4l-3.95,21.42
      c-0.32,1.34-1.41,2.43-2.89,2.43h-4.84c-1.51,0-2.28-1.2-2.06-2.43l2.57-14.12c0.41-2.57-2.95-2.61-3.38,0.02l-2.43,14.1
      c-0.33,1.45-1.46,2.42-3,2.42h-4.67c-1.4,0-2.27-1.04-2.05-2.42l2.64-14.12c0.4-2.53-2.8-2.61-3.3,0.02l-2.56,14.1
      c-0.31,1.46-1.63,2.44-2.92,2.44h-4.79c-1.41,0-2.28-1.04-2.05-2.45l3.94-21.42c0.25-1.41,1.63-2.39,2.91-2.39h6.52
      c0.96,0,2.23,0.75,1.93,2.4c0.3-1.66,1.87-2.4,3-2.4h7.92C934.48,539.24,935.56,540.18,935.27,541.61z"/>
    <path class="st1" d="M900.66,528.99h4.76c1.58,0,2.21,1.27,1.98,2.44l-0.49,3.06c-0.27,1.36-1.66,2.45-2.9,2.45h-4.76
      c-1.61,0-2.2-1.29-2.03-2.42l0.55-3.13C897.98,530.26,899.03,528.99,900.66,528.99z"/>
    <path class="st0" d="M898.83,539.22h4.79c1.35,0,2.21,1.03,1.98,2.4l-3.93,21.42c-0.29,1.52-1.6,2.43-2.84,2.43H894
      c-1.45,0-2.23-1.23-2.01-2.43l3.95-21.4C896.18,540.18,897.55,539.24,898.83,539.22z"/>
    <path class="st0" d="M976.2,541.61c0.29-1.33,1.47-2.39,2.92-2.38h6.56c1.55,0,2.21,1.33,2.02,2.4l-3.95,21.42
      c-0.32,1.34-1.4,2.43-2.89,2.43h-4.84c-1.51,0-2.28-1.2-2.05-2.43l2.57-14.12c0.41-2.57-2.95-2.61-3.38,0.02l-2.43,14.1
      c-0.33,1.45-1.46,2.42-3,2.42H963c-1.36,0-2.23-1.04-2-2.42l2.64-14.12c0.4-2.53-2.8-2.61-3.3,0.02l-2.61,14.1
      c-0.29,1.35-1.47,2.43-2.89,2.42h-4.79c-1.49,0-2.26-1.03-2.03-2.43l3.94-21.42c0.25-1.41,1.62-2.4,2.89-2.4h6.53
      c0.96,0,2.23,0.75,1.93,2.4c0.3-1.66,1.87-2.4,3-2.4h7.92C975.41,539.24,976.49,540.18,976.2,541.61z"/>
    <path class="st0" d="M1030.44,548.51c0.3-1.73-2.81-2.57-3.46,0.93l-2.5,13.62c-0.25,1.3-1.49,2.43-2.86,2.42h-4.82
      c-1.62,0-2.26-1.13-1.98-2.57l3.91-21.27c0.23-1.31,1.47-2.41,2.9-2.41h4.84c0.88,0,2.31,0.68,1.91,2.66
      c0.65-1.09,2-2.67,4.28-2.67h2.98c2.18,0,3.49,1.99,3.11,3.88l-1.15,6.35h-7.34L1030.44,548.51z"/>
    <path class="st0" d="M866.81,536.92l0.99-5.49c0.33-1.59,1.69-2.43,2.86-2.43h14.87l5.64-0.01c2.07,0,2.88,2.4,0.62,5.78
      l-14.12,20.87c-0.4,0.57-0.46,1.91,1.01,1.91h10.35l-1.02,5.49c-0.29,1.59-1.65,2.43-2.86,2.43h-21.13
      c-1.42,0.03-3.23-1.43-0.93-4.68l14.76-21.69c0.5-0.72,0.4-2.2-0.93-2.2H866.81z"/>
    <path class="st1" d="M983.41,574.76l-4.68,9.64h1.88l1.05-2.28h2.54l0.17,2.28h1.8l-0.88-9.64H983.41z M982.39,580.51l0.77-1.78
      c0.31-0.69,0.76-1.85,0.76-1.85s0,0.82,0.04,1.63l0.12,2.01H982.39z"/>
    <path class="st1" d="M993.74,574.78l-1.28,6.69c-0.06,0.33-0.1,0.71-0.1,1.02c0,1.24,0.97,2.07,2.65,2.07
      c1.62,0,2.27-0.59,2.6-0.87c0.67-0.57,0.87-1.22,1.11-2.45l1.24-6.47h-1.77l-1.18,6.15c-0.1,0.51-0.12,0.62-0.19,0.82
      c-0.2,0.68-0.73,1.16-1.53,1.16c-0.57,0-0.95-0.23-1.06-0.66c-0.05-0.19-0.04-0.59,0.07-1.15l1.21-6.32H993.74z"/>
    <path class="st1" d="M1012.39,575.46c-0.63-0.61-1.64-0.97-2.7-0.97c-2.05,0-3.7,1.58-3.7,3.51c0,1.12,0.6,1.65,1.58,2.02
      l0.91,0.35c0.62,0.24,0.92,0.55,0.92,1.04c0,0.95-0.71,1.59-1.8,1.59c-0.87,0-1.52-0.28-2.24-0.75l-0.92,1.48
      c0.72,0.51,1.63,0.87,2.85,0.87c2.59,0,4.19-1.71,4.19-3.8c0-1.09-0.59-1.76-1.71-2.17l-1-0.37c-0.58-0.22-0.8-0.54-0.8-0.93
      c0-0.66,0.66-1.22,1.44-1.22c0.75,0,1.36,0.21,1.92,0.68L1012.39,575.46z"/>
    <polygon class="st1" points="1018.28,574.78 1017.97,576.39 1020.09,576.39 1018.56,584.39 1020.35,584.39 1021.88,576.39 
      1023.92,576.39 1024.52,574.78 1018.28,574.78 "/>
    <path class="st1" d="M1030.56,574.78l-1.84,9.61h1.76l0.77-4.01c0.06,0,0.14,0.01,0.21,0.06c0.29,0.15,0.53,0.64,1.07,2.39
      l0.45,1.56h2.05c0,0-0.88-2.86-1.29-3.66c-0.09-0.15-0.22-0.37-0.37-0.48c1.32-0.25,2.49-1.47,2.49-3.36c0-1.29-0.76-2.1-2.07-2.1
      h-3.06z M1032.01,576.33h0.86c0.72,0,1.11,0.28,1.11,0.94c0,0.43-0.22,1.02-0.56,1.33c-0.29,0.24-0.62,0.33-1.37,0.33h-0.54
      L1032.01,576.33z"/>
    <polygon class="st1" points="1043.09,574.78 1041.25,584.39 1043.05,584.39 1044.89,574.78 1043.09,574.78 "/>
    <path class="st1" d="M1053.64,574.76l-4.68,9.64h1.88l1.05-2.28h2.54l0.17,2.28h1.8l-0.88-9.64H1053.64z M1052.62,580.51l0.77-1.78
      c0.31-0.69,0.76-1.85,0.76-1.85s0,0.82,0.04,1.63l0.12,2.01H1052.62z"/>
    <path class="st1" d="M1040.1,538.31c9.08-9.39,11.52-22.94,7.53-30.34c-13.74-25.48-93.02-6.25-137.54,20.11
      c-0.2,0.12-0.27,0.38-0.16,0.59c0.12,0.2,0.38,0.28,0.59,0.16c28.09-16.95,95.07-39.52,125.26-27.05
      c14.09,5.81,12.68,22.92,3.63,35.91c-0.15,0.21-0.16,0.49,0.03,0.66C1039.63,538.51,1039.92,538.49,1040.1,538.31z"/>
  </g>
</svg>
